#!OML:ASF F:\VICON\USERDATA\INSTALL\rory3\rory3.ASF
:FULLY-SPECIFIED
:DEGREES
418
root 0.390347 16.3217 -3.62623 -154.675 -0.247243 180.953
lowerback -14.4235 4.41929 3.60447
upperback -16.5979 1.7031 -1.0519
thorax -9.77033 -1.29035 -2.75185
lowerneck -2.35158 1.76712 -0.369515
upperneck 21.2752 0.302719 3.20231
head 6.85099 -0.285064 1.03628
rclavicle -5.61567e-015 -4.47266e-015
rhumerus -61.2766 -8.26149 -27.4704
rradius 60.2157
rwrist 6.7591
rhand -28.3799 54.925
rfingers 7.12502
rthumb -1.75278 24.9524
lclavicle -5.61567e-015 -4.47266e-015
lhumerus -65.1308 8.89281 17.3108
lradius 61.0682
lwrist -27.843
lhand -28.7618 1.61052
lfingers 7.12502
lthumb -2.1217 31.5797
rfemur -38.2274 8.41587 28.3494
rtibia 39.665
rfoot -44.7798 -29.1174
rtoes -9.01772
lfemur -87.8629 28.5608 -47.024
ltibia 83.5248
lfoot 5.78607 51.2473
ltoes 47.8704
419
root 0.42398 16.3186 -3.60463 -154.314 0.384073 180.539
lowerback -14.7097 -0.595455 3.90722
upperback -16.7056 3.00729 0.0986151
thorax -9.91473 2.81525 -2.19174
lowerneck -1.55618 1.52506 -0.318442
upperneck 18.4408 0.425814 2.94384
head 5.80766 -0.124456 0.951839
rclavicle 8.34896e-015 -1.66979e-014
rhumerus -61.9681 -10.2237 -25.0787
rradius 55.2604
rwrist 10.6794
rhand -24.7803 57.1189
rfingers 7.12502
rthumb 1.72378 27.1461
lclavicle 8.34896e-015 -1.66979e-014
lhumerus -65.8246 9.99447 16.6013
lradius 57.7991
lwrist -28.242
lhand -28.2762 1.69498
lfingers 7.12502
lthumb -1.65266 31.6683
rfemur -38.8579 10.8211 27.1805
rtibia 39.8179
rfoot -45.9875 -30.0822
rtoes -7.46567
lfemur -88.2958 28.8513 -47.7442
ltibia 83.0838
lfoot 18.3729 49.5203
ltoes 44.2632
420
root 0.436932 16.3189 -3.57516 -154.103 0.784444 180.352
lowerback -14.6894 -0.635942 3.50936
upperback -16.8653 3.04794 0.145622
thorax -10.1242 2.9004 -1.9329
lowerneck -0.6982 1.38856 -0.522786
upperneck 15.6327 0.599203 2.99
head 4.78461 0.0453717 1.00413
rclavicle -5.51627e-015 -7.55382e-015
rhumerus -62.3535 -9.14793 -27.6807
rradius 53.6828
rwrist 6.13231
rhand -28.0947 54.5765
rfingers 7.12502
rthumb -1.47739 24.6019
lclavicle -5.51627e-015 -7.55382e-015
lhumerus -66.4645 10.8227 15.9987
lradius 54.5859
lwrist -28.3764
lhand -27.5523 1.79381
lfingers 7.12502
lthumb -0.953494 31.7714
rfemur -39.3309 11.9216 26.5601
rtibia 39.9568
rfoot -46.6704 -30.1652
rtoes -6.391
lfemur -88.4084 28.983 -47.9919
ltibia 82.6708
lfoot 18.9357 49.5444
ltoes 45.0501
421
root 0.432325 16.3205 -3.54328 -154.021 0.803201 180.262
lowerback -14.4565 -0.639576 3.60647
upperback -17.0081 3.08871 0.103609
thorax -10.4241 2.91471 -2.05592
lowerneck 0.344571 1.18361 -0.725148
upperneck 12.459 0.647131 2.9639
head 3.98826 0.12447 1.11416
rclavicle -7.65321e-015 -1.37161e-014
rhumerus -63.0202 -8.86618 -28.5469
rradius 51.3735
rwrist 4.65865
rhand -29.3204 53.0748
rfingers 7.12502
rthumb -2.66117 23.1116
lclavicle -7.65321e-015 -1.37161e-014
lhumerus -66.7833 11.2658 15.7855
lradius 51.4997
lwrist -28.1359
lhand -26.8446 2.20249
lfingers 7.12502
lthumb -0.269967 32.1821
rfemur -39.6056 11.9396 26.3902
rtibia 40.0407
rfoot -46.5261 -30.3826
rtoes -6.91336
lfemur -88.1045 28.7803 -47.6544
ltibia 82.473
lfoot 2.1224 51.955
ltoes 50.9077
422
root 0.426815 16.3265 -3.51754 -154.104 0.683244 180.308
lowerback -14.1133 -0.609851 3.89322
upperback -17.1501 3.16562 0.0657061
thorax -10.784 2.9212 -2.28484
lowerneck 1.43889 0.957717 -0.91717
upperneck 9.9289 0.576406 2.98196
head 2.90096 0.136369 1.11976
rclavicle 3.52843e-015 7.7526e-015
rhumerus -63.8449 -9.95265 -26.8607
rradius 47.4841
rwrist 7.5241
rhand -27.6129 54.112
rfingers 7.12502
rthumb -1.01207 24.1347
lclavicle 3.52843e-015 7.7526e-015
lhumerus -66.9284 11.7504 15.3961
lradius 48.2888
lwrist -28.2895
lhand -25.9071 2.81487
lfingers 7.12502
lthumb 0.63545 32.7937
rfemur -39.5937 11.7176 26.5188
rtibia 40.0748
rfoot -46.4289 -30.3276
rtoes -7.12198
lfemur -88.1812 28.795 -47.7883
ltibia 82.2468
lfoot 13.6336 51.0499
ltoes 47.3717
423
root 0.420668 16.3227 -3.49255 -154.206 0.48157 180.676
lowerback -13.8893 -0.523353 4.50348
upperback -17.2414 3.29665 0.133844
thorax -11.0194 2.92593 -2.56532
lowerneck 2.32191 0.759406 -1.19108
upperneck 7.7535 0.481311 3.04525
head 2.02122 0.119247 1.16079
rclavicle 2.33572e-014 2.8625e-014
rhumerus -64.3176 -10.7186 -26.2945
rradius 44.317
rwrist 8.47841
rhand -28.033 53.2122
rfingers 7.12502
rthumb -1.41778 23.2372
lclavicle 2.33572e-014 2.8625e-014
lhumerus -67.047 12.2568 14.9141
lradius 45.0891
lwrist -28.8103
lhand -25.324 2.9613
lfingers 7.12502
lthumb 1.19864 32.9377
rfemur -39.544 11.2857 27.1064
rtibia 40.1175
rfoot -46.1858 -30.1705
rtoes -7.87935
lfemur -88.3734 28.8674 -47.497
ltibia 82.2645
lfoot 20.75 49.5515
ltoes 43.998
424
root 0.419906 16.3156 -3.46548 -154.201 0.492332 180.867
lowerback -13.8552 -0.340691 4.80616
upperback -17.155 3.48823 0.125009
thorax -10.9158 2.97521 -2.72672
lowerneck 2.37508 0.557662 -1.62642
upperneck 6.04996 0.34264 3.28936
head 1.46868 0.0814693 1.29904
rclavicle -2.18663e-015 1.94809e-014
rhumerus -64.631 -12.127 -25.1943
rradius 40.969
rwrist 10.4809
rhand -28.518 52.4503
rfingers 7.12502
rthumb -1.88617 22.4789
lclavicle -2.18663e-015 1.94809e-014
lhumerus -66.8974 12.9271 14.6906
lradius 42.0833
lwrist -29.3383
lhand -24.652 3.0496
lfingers 7.12502
lthumb 1.84763 33.0214
rfemur -39.6994 11.2653 27.312
rtibia 40.1684
rfoot -46.0392 -30.1331
rtoes -8.21194
lfemur -88.6397 28.8587 -47.4304
ltibia 82.2801
lfoot 22.3926 49.1117
ltoes 42.9908
425
root 0.423459 16.3142 -3.44298 -154.245 0.72613 180.713
lowerback -13.8559 -0.171327 4.6375
upperback -16.9941 3.64222 0.043828
thorax -10.6972 3.04328 -2.69607
lowerneck 2.41311 0.406836 -1.95299
upperneck 4.29215 0.26111 3.47303
head 0.912475 0.0666978 1.40217
rclavicle 3.40419e-014 1.23246e-014
rhumerus -64.9454 -13.2895 -24.11
rradius 37.9261
rwrist 12.2139
rhand -28.0288 51.4202
rfingers 7.12502
rthumb -1.41375 21.4451
lclavicle 3.40419e-014 1.23246e-014
lhumerus -66.7555 14.1021 14.0016
lradius 39.0508
lwrist -30.5753
lhand -23.9556 2.69268
lfingers 7.12502
lthumb 2.52023 32.6575
rfemur -39.8052 11.588 26.9966
rtibia 40.2097
rfoot -45.9393 -30.3667
rtoes -8.22697
lfemur -88.7016 28.9284 -47.7426
ltibia 82.2356
lfoot 21.0607 49.4223
ltoes 43.625
426
root 0.415933 16.3206 -3.4188 -154.421 0.620302 180.707
lowerback -13.617 -0.110399 4.85663
upperback -16.9712 3.69826 0.0177216
thorax -10.7943 3.02989 -2.85532
lowerneck 2.96386 0.328013 -2.07895
upperneck 2.7333 0.233482 3.46154
head 0.338565 0.0605925 1.41302
rclavicle 1.04362e-014 5.96354e-016
rhumerus -65.2487 -14.0265 -22.9974
rradius 34.9367
rwrist 13.5451
rhand -27.1757 51.0397
rfingers 7.12502
rthumb -0.589783 21.0608
lclavicle 1.04362e-014 5.96354e-016
lhumerus -66.7523 14.9661 13.2099
lradius 36.1546
lwrist -31.6986
lhand -23.4014 2.39044
lfingers 7.12502
lthumb 3.05546 32.3483
rfemur -39.6954 11.0608 27.1509
rtibia 40.2402
rfoot -45.525 -30.3223
rtoes -8.75341
lfemur -88.4664 28.8931 -47.6416
ltibia 82.1845
lfoot 15.818 51.0783
ltoes 45.9734
427
root 0.398796 16.3259 -3.38507 -154.735 0.277749 181.04
lowerback -12.941 -0.0731695 5.58587
upperback -17.0688 3.76278 0.0812146
thorax -11.2933 2.96144 -3.24036
lowerneck 3.1121 0.344315 -2.19527
upperneck 2.13311 0.281158 3.51185
head 0.127351 0.0870255 1.4481
rclavicle 2.98177e-014 2.06736e-014
rhumerus -65.4996 -14.9441 -21.306
rradius 31.7268
rwrist 15.6042
rhand -26.7679 50.3738
rfingers 7.12502
rthumb -0.195882 20.3941
lclavicle 2.98177e-014 2.06736e-014
lhumerus -66.8755 15.6112 12.2715
lradius 33.3335
lwrist -32.8144
lhand -22.8299 2.22296
lfingers 7.12502
lthumb 3.60733 32.1722
rfemur -39.4085 10.1523 27.8151
rtibia 40.2174
rfoot -44.8735 -30.079
rtoes -9.10588
lfemur -88.0982 28.765 -46.9
ltibia 82.2476
lfoot 7.79686 52.7007
ltoes 48.3034
428
root 0.383707 16.3234 -3.35009 -154.867 0.0326404 181.364
lowerback -12.3978 -0.0632998 6.24541
upperback -17.2315 3.8426 0.182497
thorax -11.8095 2.92323 -3.54479
lowerneck 3.05335 0.454932 -2.41324
upperneck 1.81108 0.440871 3.68225
head 0.0318308 0.169046 1.53913
rclavicle 1.60022e-014 2.66371e-014
rhumerus -65.8024 -16.5249 -18.4111
rradius 28.2623
rwrist 19.2842
rhand -26.02 49.4093
rfingers 7.12502
rthumb 0.526401 19.4302
lclavicle 1.60022e-014 2.66371e-014
lhumerus -67.1035 16.0975 11.3722
lradius 30.8826
lwrist -33.9329
lhand -21.7503 3.04732
lfingers 7.12502
lthumb 4.64993 32.9763
rfemur -39.3778 9.13326 28.4584
rtibia 40.1929
rfoot -43.9929 -29.8516
rtoes -10.0893
lfemur -88.4728 28.6387 -47.1186
ltibia 81.999
lfoot 35.2254 43.1678
ltoes 31.3126
